<?xml version="1.0" encoding="UTF-8"?>
<svg xmlns="http://www.w3.org/2000/svg" xmlns:xlink="http://www.w3.org/1999/xlink" viewBox="0 0 48 48" width="36px" height="36px">
<g id="surface50024670">
<path style=" stroke:none;fill-rule:nonzero;fill:rgb(100%,100%,100%);fill-opacity:1;" d="M 39 0 L 9 0 C 4.03125 0 0 4.03125 0 9 L 0 39 C 0 43.96875 4.03125 48 9 48 L 39 48 C 43.96875 48 48 43.96875 48 39 L 48 9 C 48 4.03125 43.96875 0 39 0 Z M 14.839844 40.746094 L 7.382812 40.746094 L 7.339844 18.417969 L 14.796875 18.417969 Z M 10.925781 15.496094 L 10.882812 15.496094 C 8.445312 15.496094 6.871094 13.816406 6.871094 11.726562 C 6.871094 9.585938 8.496094 7.960938 10.976562 7.960938 C 13.457031 7.960938 14.976562 9.585938 15.027344 11.726562 C 15.027344 13.816406 13.449219 15.496094 10.925781 15.496094 Z M 40.695312 40.746094 L 33.171875 40.746094 L 33.171875 28.617188 C 33.171875 25.679688 32.394531 23.683594 29.769531 23.683594 C 27.765625 23.683594 26.683594 25.03125 26.164062 26.335938 C 25.96875 26.804688 25.917969 27.445312 25.917969 28.101562 L 25.917969 40.746094 L 18.359375 40.746094 L 18.316406 18.417969 L 25.875 18.417969 L 25.917969 21.570312 C 26.882812 20.078125 28.492188 17.964844 32.34375 17.964844 C 37.117188 17.964844 40.6875 21.078125 40.6875 27.777344 L 40.6875 40.746094 Z M 40.695312 40.746094 "/>
</g>
</svg>
