<?xml version="1.0" encoding="UTF-8"?>
<svg xmlns="http://www.w3.org/2000/svg" xmlns:xlink="http://www.w3.org/1999/xlink" viewBox="0 0 48 48" width="36px" height="36px">
<g id="surface50019228">
<path style=" stroke:none;fill-rule:nonzero;fill:rgb(100%,100%,100%);fill-opacity:1;" d="M 9 0 C 4.03125 0 0 4.03125 0 9 L 0 24.632812 L 9.347656 27.347656 C 11.0625 25.226562 13.671875 23.882812 16.617188 23.882812 C 16.710938 23.882812 16.808594 23.882812 16.902344 23.882812 L 22.039062 16.730469 C 22.039062 16.6875 22.039062 16.660156 22.039062 16.617188 C 22.039062 10.441406 27.050781 5.421875 33.230469 5.421875 C 39.410156 5.421875 44.421875 10.441406 44.421875 16.617188 C 44.421875 22.796875 39.410156 27.808594 33.230469 27.808594 C 33.171875 27.808594 33.117188 27.808594 33.058594 27.808594 L 25.960938 32.941406 C 25.96875 33.035156 25.960938 33.136719 25.960938 33.230469 C 25.960938 38.402344 21.785156 42.578125 16.617188 42.578125 C 11.828125 42.578125 7.941406 38.972656 7.382812 34.328125 L 0 32.191406 L 0 39 C 0 43.96875 4.03125 48 9 48 L 39 48 C 43.96875 48 48 43.96875 48 39 L 48 9 C 48 4.03125 43.96875 0 39 0 Z M 33.230469 8.828125 C 28.941406 8.828125 25.441406 12.316406 25.441406 16.617188 C 25.441406 20.914062 28.941406 24.402344 33.230469 24.402344 C 37.523438 24.402344 41.019531 20.914062 41.019531 16.617188 C 41.019531 12.316406 37.523438 8.828125 33.230469 8.828125 Z M 33.230469 11.191406 C 36.214844 11.191406 38.652344 13.628906 38.652344 16.617188 C 38.652344 19.601562 36.214844 22.039062 33.230469 22.039062 C 30.253906 22.039062 27.808594 19.601562 27.808594 16.617188 C 27.808594 13.628906 30.253906 11.191406 33.230469 11.191406 Z M 16.617188 26.882812 C 15.09375 26.882812 13.730469 27.433594 12.632812 28.328125 L 17.308594 29.652344 C 17.34375 29.660156 17.386719 29.703125 17.421875 29.710938 L 17.539062 29.710938 C 19.109375 30.117188 20.25 31.542969 20.25 33.230469 C 20.25 35.234375 18.621094 36.867188 16.617188 36.867188 C 16.234375 36.867188 15.867188 36.808594 15.519531 36.691406 L 10.617188 35.308594 C 11.472656 37.808594 13.824219 39.578125 16.617188 39.578125 C 20.132812 39.578125 22.960938 36.75 22.960938 33.230469 C 22.960938 29.710938 20.132812 26.882812 16.617188 26.882812 Z M 16.617188 26.882812 "/>
</g>
</svg>
